# xmcd
#
# Track frame offsets: 
#        150
#        32094
#        53034
#        78080
#        101451
#        118754
#        136355
#        144292
#        159490
#        184454
#        204951
#        232761
#        238515
#
# Disc length: 3607 seconds
#
# Revision: 15
# Processed by: cddbd v1.5.2PL0 Copyright (c) Steve Scherf et al.
# Submitted via: ExactAudioCopyFreeDBPlugin 1.0
#
DISCID=a00e150d
DTITLE=Nightmares On Wax - Mind Elevation
DYEAR=2002
DGENRE=Trip-Hop
TTITLE0=Mind Eye
TTITLE1=Say-Say
TTITLE2=Thinking Of Omara (feat. Miriam Lamen)
TTITLE3=Date With Destiny (feat. Chyna Brown)
TTITLE4=Bleu My Mind
TTITLE5=Environment
TTITLE6=Soul-Ho
TTITLE7=Humble
TTITLE8=70s 80s (feat. LSK)
TTITLE9=Know My Name (feat. Chyna Brown)
TTITLE10=BBH (Bongo-Brk-Haven)
TTITLE11=Mirrorball
TTITLE12=Thoughts (feat. Manda)
EXTD=
EXTT0=
EXTT1=
EXTT2=
EXTT3=
EXTT4=
EXTT5=
EXTT6=
EXTT7=
EXTT8=
EXTT9=
EXTT10=
EXTT11=
EXTT12=
PLAYORDER=
